<svg id="visual" viewBox="0 0 900 600" width="900" height="600" xmlns="http://www.w3.org/2000/svg" xmlns:xlink="http://www.w3.org/1999/xlink" version="1.1"><rect x="0" y="0" width="900" height="600" fill="#EEEEEE"></rect><defs><linearGradient id="grad1_0" x1="33.3%" y1="100%" x2="100%" y2="0%"><stop offset="20%" stop-color="#a04000" stop-opacity="1"></stop><stop offset="80%" stop-color="#a04000" stop-opacity="1"></stop></linearGradient></defs><defs><linearGradient id="grad1_1" x1="33.3%" y1="100%" x2="100%" y2="0%"><stop offset="20%" stop-color="#a04000" stop-opacity="1"></stop><stop offset="80%" stop-color="#d19676" stop-opacity="1"></stop></linearGradient></defs><defs><linearGradient id="grad1_2" x1="33.3%" y1="100%" x2="100%" y2="0%"><stop offset="20%" stop-color="#eeeeee" stop-opacity="1"></stop><stop offset="80%" stop-color="#d19676" stop-opacity="1"></stop></linearGradient></defs><defs><linearGradient id="grad2_0" x1="0%" y1="100%" x2="66.7%" y2="0%"><stop offset="20%" stop-color="#a04000" stop-opacity="1"></stop><stop offset="80%" stop-color="#a04000" stop-opacity="1"></stop></linearGradient></defs><defs><linearGradient id="grad2_1" x1="0%" y1="100%" x2="66.7%" y2="0%"><stop offset="20%" stop-color="#d19676" stop-opacity="1"></stop><stop offset="80%" stop-color="#a04000" stop-opacity="1"></stop></linearGradient></defs><defs><linearGradient id="grad2_2" x1="0%" y1="100%" x2="66.7%" y2="0%"><stop offset="20%" stop-color="#d19676" stop-opacity="1"></stop><stop offset="80%" stop-color="#eeeeee" stop-opacity="1"></stop></linearGradient></defs><g transform="translate(900, 600)"><path d="M-459.7 0C-460.9 -69.1 -462.1 -138.3 -422.2 -174.9C-382.3 -211.5 -301.2 -215.5 -258.8 -258.8C-216.4 -302.1 -212.6 -384.7 -175.9 -424.7C-139.2 -464.7 -69.6 -462.2 0 -459.7L0 0Z" fill="#e3c1b1"></path><path d="M-306.5 0C-307.3 -46.1 -308.1 -92.2 -281.5 -116.6C-254.9 -141 -200.8 -143.7 -172.5 -172.5C-144.3 -201.4 -141.7 -256.5 -117.3 -283.1C-92.8 -309.8 -46.4 -308.2 0 -306.5L0 0Z" fill="#bb6b3f"></path><path d="M-153.2 0C-153.6 -23 -154 -46.1 -140.7 -58.3C-127.4 -70.5 -100.4 -71.8 -86.3 -86.3C-72.1 -100.7 -70.9 -128.2 -58.6 -141.6C-46.4 -154.9 -23.2 -154.1 0 -153.2L0 0Z" fill="#a04000"></path></g><g transform="translate(0, 0)"><path d="M459.7 0C421.6 55.1 383.5 110.1 341.8 141.6C300.2 173.1 255 181 232.6 232.6C210.3 284.3 210.9 379.6 175.9 424.7C141 469.8 70.5 464.8 0 459.7L0 0Z" fill="#e3c1b1"></path><path d="M306.5 0C281.1 36.7 255.7 73.4 227.9 94.4C200.1 115.4 170 120.7 155.1 155.1C140.2 189.5 140.6 253.1 117.3 283.1C94 313.2 47 309.9 0 306.5L0 0Z" fill="#bb6b3f"></path><path d="M153.2 0C140.5 18.4 127.8 36.7 113.9 47.2C100.1 57.7 85 60.3 77.5 77.5C70.1 94.8 70.3 126.5 58.6 141.6C47 156.6 23.5 154.9 0 153.2L0 0Z" fill="#a04000"></path></g></svg>